<?xml version="1.0" encoding="utf-8"?>
<svg version="1.1" id="Layer_1" xmlns="http://www.w3.org/2000/svg" xmlns:xlink="http://www.w3.org/1999/xlink" x="0px" y="0px"
	 viewBox="0 0 363.3 35.6" style="enable-background:new 0 0 363.3 35.6;" xml:space="preserve">
<style type="text/css">
	.st0{fill:#101c2d;}
</style>
<g>
	<path class="st0" d="M105.3,5.8h-5.2V0l-29,0v5.8h-5.3v24.4h5.3v5.4l29,0v-5.4h5.2V5.8z M93.9,10.4v14.7l-16.5,0V10.4L93.9,10.4z"
		/>
	<path class="st0" d="M192.5,5.8h-5.2l0-5.8l-29,0v5.8h-5.3v24.4h5.3v5.4l29,0l0-5.4h5.2V5.8z M181.1,25.2l-16.5,0V10.4l16.5,0V25.2
		z"/>
	<path class="st0" d="M279.1,5.8h-5.2V0l-29,0v5.8h-5.3v24.4h5.3v5.4l29,0v-5.4h5.2V5.8z M267.6,10.4v14.7l-16.5,0V10.4L267.6,10.4z
		"/>
	<polygon class="st0" points="234.3,35.6 234.3,25.2 210.2,25.2 210.2,10.4 234.3,10.4 234.3,0 204.1,0 204.1,5.8 198.8,5.8
		198.8,30.2 204.1,30.2 204.1,35.6 	"/>
	<polygon class="st0" points="54.4,5.8 54.4,0 35.5,0 35.5,5.8 30.8,5.8 30.8,0 0,0 0,0.4 0,0.4 0,35.6 12,35.6 12,10.4 24,10.4
		24,35.6 36,35.6 36,10.4 48,10.4 48,35.6 60,35.6 60,5.8 	"/>
	<polygon class="st0" points="142.2,5.8 142.2,0 111.5,0 111.5,0.4 111.5,0.4 111.5,35.6 123.5,35.6 123.5,10.4 135.5,10.4
		135.5,35.6 147.5,35.6 147.5,5.8 	"/>
	<path class="st0" d="M320.8,20.8v-15H315V0l-30.7,0v0.4h0v35.2h12v-9.5l12.6,0v9.5h12v-9.5H315v-5.3H320.8z M296.2,10.4l12.6,0v5.2
		l-12.6,0V10.4z"/>
	<path class="st0" d="M363.3,5.8h-5.8V0l-30.7,0v0.4h0v35.2h12v-9.5l18.8,0v-5.3h5.8V5.8z M338.8,10.4l12.6,0v5.2l-12.6,0V10.4z"/>
</g>
</svg>
