<svg id="Layer_1" data-name="Layer 1" xmlns="http://www.w3.org/2000/svg" viewBox="0 0 412.45 39.96"><defs><style>.cls-1{fill:#101c2d;}</style></defs><path class="cls-1" d="M0,39.75V.05H34c0,1.53,0,3.07,0,4.59,0,1.09.38,1.45,1.48,1.51,4.93.29,4.93.32,4.91-4.6,0-.45,0-.89.08-1.48H61.57v6c1.8,0,3.35,0,4.9,0,.93,0,1.42.24,1.42,1.33,0,10.64,0,21.28-.06,31.92a2.22,2.22,0,0,1-.19.49H54.25V11.43c-4.4,0-8.56,0-12.71.09-.35,0-1,1.19-1,1.84-.07,8,0,15.93,0,23.89v2.51H27.22V11.51H13.46V39.75Z"/><path class="cls-1" d="M80.85,39.91v-6H74.71V6.22h6.15V.07h32.72v6h6.11V34h-6v5.93Zm25.66-11.8c0-.87.11-1.57.11-2.27,0-4.17-.06-8.34.07-12.51,0-1.63-.54-2-2-2q-7.53.12-15.06.05c-1.46,0-1.73.56-1.7,1.86.08,4,0,8,.06,11.93v2.92Z"/><path class="cls-1" d="M180.19,0h32.26V6.06h6.25V33.88h-6.13v6h-32.4V34h-6V6.08c1.45,0,2.87-.07,4.28,0s1.84-.49,1.74-1.83S180.19,1.56,180.19,0Zm7.28,28.14h18c0-5.29,0-10.42,0-15.55,0-1.16-.68-1.22-1.54-1.21-2.34,0-4.68,0-7,0h-9.41Z"/><path class="cls-1" d="M272.89,6.06h6.25v-6h31.64V6h6.28V8.29c0,7.9-.07,15.79,0,23.69,0,1.67-.53,2.18-2.12,2.05-1.28-.11-2.58,0-4.05,0v6H279.17v-6a46.75,46.75,0,0,1-4.77-.06c-.54-.06-1.44-.77-1.45-1.2C272.87,23.93,272.89,15.2,272.89,6.06Zm30.64,22.05V11.56H286.64V28.11Z"/><path class="cls-1" d="M351.58,29.24H337.17V39.81H324V.08h34.42V6h6.3V23h-5.85c-.18.26-.29.36-.31.47-.55,5-.55,5,4.35,5,.58,0,1.15.05,1.86.08V39.77H351.58ZM337.2,17.89c3.38,0,6.55,0,9.72,0,5.48,0,4.43.71,4.66-4.64.06-1.33-.51-1.74-1.69-1.74-2.34,0-4.68,0-7,0H337.2Z"/><path class="cls-1" d="M126.71.05h34V6H167V39.83H153.87v-28H140v28H126.71Z"/><path class="cls-1" d="M406.1.08V6h6.35V23h-6.3v6.2H384.9V39.81H371.7V.08ZM385,11.62v6.12h13.92V11.62Z"/><path class="cls-1" d="M225.82,6.15c1.46,0,2.83-.1,4.18,0,1.52.14,2-.51,1.87-1.91s0-2.72,0-4.22h34.21V11.38H239.18V28.11h26.88V39.93H231.85V34h-6Z"/></svg>
